<svg width="16" height="16" viewBox="0 0 16 16" fill="none" xmlns="http://www.w3.org/2000/svg">
<path fill-rule="evenodd" clip-rule="evenodd" d="M11.1671 1.50602V2.55854C12.9671 2.72721 13.8405 3.81347 13.9738 5.42598C13.9938 5.61489 13.8338 5.78357 13.6405 5.78357H2.36048C2.17381 5.78357 2.01381 5.62164 2.02714 5.42598C2.16048 3.81347 3.03381 2.72721 4.83381 2.55854V1.50602C4.83381 1.2294 5.06048 1 5.33381 1C5.60714 1 5.83381 1.2294 5.83381 1.50602V2.51806H10.1671V1.50602C10.1671 1.2294 10.3938 1 10.6671 1C10.9405 1 11.1671 1.2294 11.1671 1.50602ZM2.66667 6.79575H13.3333C13.7 6.79575 14 7.09936 14 7.47044V11.6265C14 13.6506 13 15 10.6667 15H5.33333C3 15 2 13.6506 2 11.6265V7.47044C2 7.09936 2.3 6.79575 2.66667 6.79575ZM6.10667 12.4714C6.11778 12.4617 6.12889 12.4519 6.14 12.4429C6.26 12.3147 6.33333 12.1393 6.33333 11.9639C6.33333 11.7885 6.26 11.613 6.14 11.4849L6.04 11.4039C6 11.3769 5.96 11.3567 5.92 11.3432C5.88 11.3229 5.84 11.3094 5.8 11.3027C5.66667 11.2757 5.53333 11.2892 5.41333 11.3432C5.32667 11.3769 5.26 11.4241 5.19333 11.4849C5.07333 11.613 5 11.7885 5 11.9639C5 12.1393 5.07333 12.3147 5.19333 12.4429C5.26 12.5036 5.32667 12.5509 5.41333 12.5846C5.49333 12.6183 5.58 12.6386 5.66667 12.6386C5.70808 12.6386 5.74425 12.6333 5.78448 12.6274C5.78958 12.6266 5.79475 12.6258 5.8 12.6251C5.84 12.6183 5.88 12.6048 5.92 12.5846C5.96 12.5711 6 12.5509 6.04 12.5239C6.06222 12.5104 6.08444 12.4909 6.10667 12.4714ZM5.66667 10.2772C5.84 10.2772 6.01333 10.2029 6.14 10.0815C6.26 9.9533 6.33333 9.77788 6.33333 9.60246C6.33333 9.42704 6.26 9.25162 6.14 9.12343C6.08 9.06271 6.00667 9.01548 5.92 8.98175C5.67333 8.8738 5.38 8.93452 5.19333 9.12343C5.07333 9.25162 5 9.42704 5 9.60246C5 9.77788 5.07333 9.9533 5.19333 10.0815C5.32 10.2029 5.49333 10.2772 5.66667 10.2772ZM8 12.6386C8.17333 12.6386 8.34667 12.5644 8.47333 12.4429C8.59333 12.3147 8.66667 12.1393 8.66667 11.9639C8.66667 11.7885 8.59333 11.613 8.47333 11.4849C8.22667 11.2352 7.77333 11.2352 7.52667 11.4849C7.40667 11.613 7.33333 11.7885 7.33333 11.9639C7.33333 12.1393 7.40667 12.3147 7.52667 12.4429C7.65333 12.5644 7.82667 12.6386 8 12.6386ZM8.37333 10.1625L8.47333 10.0815C8.59333 9.9533 8.66667 9.77788 8.66667 9.60246C8.66667 9.42704 8.59333 9.25162 8.47333 9.12343C8.28667 8.93452 7.99333 8.8738 7.74667 8.98175C7.66 9.01548 7.58667 9.06271 7.52667 9.12343C7.40667 9.25162 7.33333 9.42704 7.33333 9.60246C7.33333 9.77788 7.40667 9.9533 7.52667 10.0815C7.65333 10.2029 7.82667 10.2772 8 10.2772C8.04142 10.2772 8.07759 10.2718 8.11783 10.2659C8.12292 10.2652 8.12809 10.2644 8.13333 10.2637C8.17333 10.2569 8.21333 10.2434 8.25333 10.2232C8.29333 10.2097 8.33333 10.1894 8.37333 10.1625ZM10.3333 12.6386C10.5067 12.6386 10.68 12.5644 10.8067 12.4429C10.9267 12.3147 11 12.1393 11 11.9639C11 11.7885 10.9267 11.613 10.8067 11.4849C10.56 11.2352 10.1067 11.2352 9.86 11.4849C9.74 11.613 9.66667 11.7885 9.66667 11.9639C9.66667 12.1393 9.74 12.3147 9.86 12.4429C9.98667 12.5644 10.16 12.6386 10.3333 12.6386ZM10.7067 10.1625L10.8067 10.0815C10.9267 9.9533 11 9.77788 11 9.60246C11 9.42704 10.9267 9.25162 10.8067 9.12343L10.7067 9.04247C10.6667 9.01548 10.6267 8.99524 10.5867 8.98175C10.5467 8.96151 10.5067 8.94801 10.4667 8.94127C10.3333 8.91428 10.2 8.92777 10.08 8.98175C9.99333 9.01548 9.92667 9.06271 9.86 9.12343C9.74 9.25162 9.66667 9.42704 9.66667 9.60246C9.66667 9.77788 9.74 9.9533 9.86 10.0815C9.98667 10.2029 10.16 10.2772 10.3333 10.2772C10.3733 10.2772 10.42 10.2704 10.4667 10.2637C10.5067 10.2569 10.5467 10.2434 10.5867 10.2232C10.6267 10.2097 10.6667 10.1894 10.7067 10.1625Z" fill="#9F9F9F"/>
</svg>
