<svg width="24" height="24" viewBox="0 0 24 24" fill="none" xmlns="http://www.w3.org/2000/svg">
<path d="M12 0C5.388 0 0 5.388 0 12C0 18.612 5.388 24 12 24C18.612 24 24 18.612 24 12C24 5.388 18.612 0 12 0ZM16.8 12.9H12.9V16.8C12.9 17.292 12.492 17.7 12 17.7C11.508 17.7 11.1 17.292 11.1 16.8V12.9H7.2C6.708 12.9 6.3 12.492 6.3 12C6.3 11.508 6.708 11.1 7.2 11.1H11.1V7.2C11.1 6.708 11.508 6.3 12 6.3C12.492 6.3 12.9 6.708 12.9 7.2V11.1H16.8C17.292 11.1 17.7 11.508 17.7 12C17.7 12.492 17.292 12.9 16.8 12.9Z" fill="#DE210B"/>
</svg>
