<svg width="24" height="24" viewBox="0 0 24 24" fill="none" xmlns="http://www.w3.org/2000/svg">
  <path
    d="M3.22466 10.9685C3.22466 10.9685 12.0709 7.45587 15.1397 6.2177C16.3147 5.72415 20.3022 4.14136 20.3022 4.14136C20.3022 4.14136 22.1434 3.44843 21.9897 5.13091C21.9397 5.82261 21.5309 8.24726 21.1209 10.8688C20.5084 14.5797 19.8434 18.6351 19.8434 18.6351C19.8434 18.6351 19.7409 19.7736 18.8722 19.9717C18.0022 20.1687 16.5709 19.2788 16.3147 19.0807C16.1109 18.933 12.4809 16.7065 11.1522 15.6184C10.7934 15.3218 10.3834 14.7274 11.2022 14.0357C13.0434 12.4024 15.2409 10.3741 16.5709 9.08789C17.1834 8.49465 17.7984 7.10879 15.2409 8.79127C11.6109 11.2159 8.03216 13.4904 8.03216 13.4904C8.03216 13.4904 7.21341 13.9852 5.67966 13.5396C4.14591 13.0953 2.35716 12.5033 2.35716 12.5033C2.35716 12.5033 1.12966 11.7612 3.22591 10.9698L3.22466 10.9685Z"
    fill="#1F1F1F" />
</svg>