<svg width="24" height="24" viewBox="0 0 24 24" fill="none" xmlns="http://www.w3.org/2000/svg">
  <path
    d="M21.5294 6.83274C21.6776 6.36299 21.5294 6.02135 20.8727 6.02135H18.691C18.1403 6.02135 17.8861 6.32028 17.7379 6.64057C17.7379 6.64057 16.6152 9.37367 15.0478 11.1459C14.5395 11.6584 14.3065 11.8292 14.0311 11.8292C13.8828 11.8292 13.6922 11.6584 13.6922 11.1886V6.81139C13.6922 6.25623 13.5227 6 13.0568 6H9.62535C9.28644 6 9.07463 6.25623 9.07463 6.51246C9.07463 7.04626 9.85834 7.17438 9.94307 8.66904V11.9146C9.94307 12.6192 9.81598 12.7473 9.54062 12.7473C8.79927 12.7473 6.99884 9.99288 5.91858 6.85409C5.70677 6.23488 5.49495 6 4.94423 6H2.74135C2.10591 6 2 6.29893 2 6.61922C2 7.19573 2.74135 10.0996 5.45259 13.9431C7.25302 16.5694 9.81598 17.9786 12.1248 17.9786C13.5227 17.9786 13.6922 17.6584 13.6922 17.1246V15.1388C13.6922 14.4982 13.8193 14.3915 14.2641 14.3915C14.5818 14.3915 15.1537 14.5623 16.4458 15.8221C17.9285 17.3167 18.1827 18 19.0088 18H21.1905C21.8259 18 22.1224 17.6797 21.953 17.0605C21.7624 16.4413 21.0422 15.5445 20.1102 14.4769C19.6018 13.879 18.8393 13.2171 18.6063 12.8968C18.2886 12.4698 18.3733 12.2989 18.6063 11.9146C18.5851 11.9146 21.254 8.11388 21.5294 6.83274Z"
    fill="#1F1F1F" />
</svg>