<svg width="24" height="24" viewBox="0 0 24 24" fill="none" xmlns="http://www.w3.org/2000/svg">
  <path fill-rule="evenodd" clip-rule="evenodd"
    d="M19.472 7.564C17.981 8.635 17.235 9.924 17.235 11.431C17.235 13.236 18.157 14.621 20 15.586C19.505 17.04 18.789 18.306 17.85 19.384C16.914 20.46 16.057 21 15.282 21C14.917 21 14.419 20.878 13.787 20.633L13.484 20.514C12.866 20.27 12.318 20.147 11.843 20.147C11.393 20.147 10.902 20.243 10.368 20.435L9.987 20.574L9.507 20.772C9.13 20.924 8.749 21 8.365 21C7.459 21 6.46 20.243 5.365 18.73C3.788 16.56 3 14.197 3 11.64C3 9.822 3.492 8.357 4.475 7.247C5.459 6.137 6.761 5.581 8.383 5.581C8.989 5.581 9.556 5.693 10.083 5.918L10.445 6.067L10.825 6.226C11.165 6.371 11.438 6.444 11.647 6.444C11.914 6.444 12.21 6.381 12.536 6.255L13.034 6.057L13.405 5.918C13.998 5.7 14.652 5.591 15.369 5.591C17.069 5.591 18.437 6.249 19.472 7.564ZM15.447 1C15.467 1.231 15.477 1.41 15.477 1.535C15.477 2.679 15.067 3.682 14.245 4.545C13.425 5.408 12.471 5.839 11.383 5.839C11.35 5.581 11.333 5.396 11.333 5.284C11.333 4.312 11.715 3.4 12.477 2.547C13.239 1.694 14.122 1.195 15.125 1.05C15.196 1.036 15.304 1.02 15.447 1Z"
    fill="white" />
</svg>