<svg width="120" height="120" viewBox="0 0 120 120" fill="none" xmlns="http://www.w3.org/2000/svg">
  <rect width="120" height="120" rx="32" fill="#DE210B" />
  <path
    d="M40.453 35.0142C34.6746 35.0142 30 39.6165 30 45.3054V74.6946C30 80.3835 34.6746 84.9858 40.453 84.9858C46.2241 84.9858 50.8987 80.3835 50.8987 74.6946V45.3054C50.9348 39.6165 46.2241 35.0142 40.453 35.0142ZM79.6246 60.2273L74.3728 65.3977L72.2303 67.5071L72.1365 67.6278C68.1977 71.6264 68.1977 77.9759 72.2015 82.0384C76.2917 86.0085 82.8636 85.9801 86.9323 81.9744C91.0226 77.9474 91.0226 71.4489 86.9323 67.4148L79.6246 60.2273ZM71.3141 67.0526L73.4567 64.9503L86.0089 52.5852C90.1064 48.5511 90.1064 42.0526 86.0089 38.0256C81.9186 33.9915 75.3179 33.9915 71.2204 38.0256L56.5256 52.4929C52.4281 56.527 52.4281 63.0256 56.5545 67.0881L70.398 80.5895C67.2816 76.5909 67.5268 70.8452 71.1915 67.1449L71.3141 67.0526Z"
    fill="white" />
</svg>